<svg enable-background="new 0 0 492 492" viewBox="0 0 492 492" xmlns="http://www.w3.org/2000/svg"><g id="Master_Layer_2"/><g id="Layer_1"><g><g clip-rule="evenodd" fill-rule="evenodd"><path d="m84.428 83.743c-13.838 42.427-5.138 87.394 10.465 114.418 7.061 12.229 64.714 111.228 75.584 129.889l41.78-24.121z"/><path d="m363.966 194.457-66.436-38.357-9.322 16.148c-6.345 10.989-2.567 25.092 8.422 31.438l.792.456 25.781 14.883c5.328 3.077 11.529 3.894 17.466 2.302 5.938-1.591 10.9-5.399 13.974-10.723z"/><path d="m246.857 348.459 68.248-124.958-18.292-10.561-65.905 108.143z"/><path d="m204.116 376.055c-1.03-3.595-.653-5.47-1.274-8.921l-26.223 43.027c-1.42 2.338-1.113 5.192-.606 7.173 1.158 4.52 4.615 9.204 8.406 11.392 2.451 1.416 5.778 2.228 9.132 2.228 3.986 0 8.93-1.25 10.851-4.757l15.944-29.191c-.511-.454-1.047-.911-1.608-1.368-8.873-7.24-12.425-11.999-14.622-19.583z"/><path d="m215.861 310.996-26.654 15.388c2.835 2.556 4.478 4.65 6.185 6.828.22.281.443.565.672.855 5.404 6.835 9.458 14.123 12.05 21.662.004.012.008.024.012.036.013.038.026.076.038.114 1.327 3.879 2.252 7.82 2.748 11.714.39 2.655.152 3.928.814 6.259 1.531 5.286 3.63 8.801 12.02 15.647 1.619 1.32 3.087 2.656 4.364 3.967.011.011.022.022.032.034 9.247 9.532 7.719 17.377 6.602 23.107-.583 2.993-1.044 5.357-.118 7.639 2.823 6.955 11.28 7.136 14.019 6.65 4.036-.713 13.067-3.934 21.326-11.486 5.338-4.881 1.782-12.483.005-15.525l-47.098-80.845c-.005-.008-.009-.015-.014-.023z"/><path d="m157.742 149.966c4.793-2.402 12.741-4.521 22.38-5.974 9.656-1.453 20.793-2.221 32.211-2.221 11.416 0 22.553.768 32.209 2.221 9.638 1.453 17.586 3.572 22.379 5.974.651.327 1.342.48 2.025.48 1.659 0 3.258-.916 4.053-2.503 1.119-2.236.215-4.959-2.023-6.078-5.702-2.857-14.378-5.219-25.085-6.831-10.094-1.52-21.699-2.322-33.558-2.322-11.862 0-23.466.802-33.561 2.322-10.708 1.612-19.384 3.974-25.086 6.831-2.238 1.119-3.142 3.843-2.023 6.078 1.12 2.238 3.844 3.142 6.079 2.023z"/><path d="m257.545 108.618c.716 0 1.439-.181 2.1-.564l9.698-5.598c2.013-1.161 2.704-3.736 1.543-5.749-1.164-2.013-3.736-2.704-5.749-1.543l-9.698 5.6c-2.013 1.161-2.704 3.736-1.543 5.749.78 1.35 2.196 2.105 3.649 2.105z"/><path d="m237.075 87.6c.664.381 1.386.564 2.102.564 1.453 0 2.87-.755 3.649-2.104l4.954-8.581c1.164-2.013.473-4.588-1.54-5.749-2.013-1.164-4.588-.473-5.749 1.54l-4.957 8.579c-1.16 2.013-.472 4.588 1.541 5.751z"/><path d="m212.333 93.532c-17.527 0-31.857 13.684-32.887 30.951 9.574-1.441 20.835-2.273 32.887-2.273 12.05 0 23.311.832 32.885 2.273-1.03-17.266-15.36-30.951-32.885-30.951z"/><path d="m212.408 80.386c2.325 0 4.209-1.884 4.209-4.209v-9.547c0-2.325-1.884-4.209-4.209-4.209s-4.209 1.884-4.209 4.209v9.547c0 2.324 1.884 4.209 4.209 4.209z"/><path d="m181.947 85.991c.78 1.349 2.194 2.105 3.649 2.105.713 0 1.436-.181 2.1-.564 2.013-1.161 2.704-3.736 1.543-5.749l-4.915-8.512c-1.161-2.013-3.736-2.704-5.749-1.54-2.013 1.161-2.704 3.736-1.543 5.749z"/><path d="m155.467 102.456 9.584 5.534c.664.384 1.386.564 2.102.564 1.453 0 2.87-.753 3.649-2.104 1.161-2.013.473-4.588-1.54-5.749l-9.587-5.534c-2.013-1.164-4.588-.473-5.749 1.54-1.163 2.013-.472 4.585 1.541 5.749z"/><path d="m328.248 164.688 46.552-80.628c1.094-1.895.445-4.317-1.45-5.412-1.895-1.094-4.317-.445-5.412 1.45l-46.551 80.628z"/><path d="m394.639 95.514c1.094-1.895.445-4.317-1.45-5.412-1.894-1.094-4.317-.445-5.412 1.45l-46.552 80.629 6.862 3.961z"/><path d="m414.479 106.968c1.094-1.895.445-4.318-1.45-5.412-1.894-1.094-4.317-.445-5.412 1.45l-46.552 80.629 6.862 3.961z"/><path d="m354.961 72.605c1.094-1.895.445-4.317-1.45-5.412-1.894-1.094-4.317-.445-5.412 1.45l-46.552 80.629 6.862 3.961z"/></g></g></g></svg>