<svg enable-background="new 0 0 492 492" viewBox="0 0 492 492" xmlns="http://www.w3.org/2000/svg"><g id="Master_Layer_2"/><g id="Layer_1"><g><g><g><g><g><path clip-rule="evenodd" d="m171.943 332.591c-1.983 0-3.913-1.025-4.983-2.862-11.018-18.917-24.532-42.15-37.601-64.619-4.865-8.365-9.762-16.761-14.497-24.88-8.352-14.32-16.24-27.846-23.112-39.748-8.937-15.479-15.071-35.285-17.273-55.77-2.645-24.595.563-49.187 9.275-71.118.814-2.05 2.728-3.455 4.928-3.618 2.2-.164 4.299.945 5.407 2.853l129.98 223.888c.768 1.324.979 2.898.584 4.376-.394 1.478-1.36 2.739-2.685 3.504l-47.148 27.22c-.907.525-1.898.774-2.875.774zm-81.481-243.061c-11.376 39.31-3.134 80.252 11.266 105.193 6.859 11.88 14.741 25.395 23.086 39.704 4.737 8.122 9.635 16.52 14.504 24.892 11.947 20.54 24.266 41.719 34.709 59.654l37.178-21.465z" fill-rule="evenodd"/></g><g><path clip-rule="evenodd" d="m246.955 431.06c-7.148 0-16.471-3.097-20.333-12.611-1.972-4.857-1.108-9.29-.414-12.851 1.077-5.529 1.855-9.524-7.308-17.003-8.95-7.304-12.546-12.149-14.803-19.935-.63-2.176-.734-3.535-.843-4.973-.055-.725-.112-1.476-.249-2.551-.838-6.57-3.669-16.718-12.4-27.759-.232-.294-.459-.583-.683-.868-2.234-2.848-3.848-4.906-8.605-8.436-2.555-1.896-3.088-5.504-1.193-8.059 1.896-2.554 5.504-3.088 8.058-1.193 6 4.454 8.334 7.428 10.804 10.577.214.273.431.55.654.832 10.373 13.117 13.77 25.428 14.792 33.447.174 1.366.249 2.347.309 3.136.089 1.17.122 1.607.421 2.638 1.397 4.822 3.237 7.863 11.022 14.216 6.251 5.102 10.001 10.183 11.463 15.532 1.356 4.961.531 9.196-.132 12.598-.576 2.958-.87 4.711-.219 6.315 2.261 5.569 9.219 5.68 11.476 5.28 3.709-.657 12.035-3.642 19.712-10.662 4.134-3.78 1.125-10.119-.36-12.668l-54.382-93.344c-1.601-2.749-.671-6.275 2.078-7.877 2.748-1.602 6.275-.671 7.877 2.077l54.382 93.344c2.291 3.932 3.255 7.388 3.661 9.595 1.255 6.825-.692 12.996-5.481 17.375-9.001 8.231-19.349 12.418-25.476 13.504-1.16.209-2.454.324-3.828.324z" fill-rule="evenodd"/></g></g><g><g><g><path clip-rule="evenodd" d="m247.473 354.95c-.933 0-1.879-.227-2.756-.706-2.792-1.525-3.819-5.024-2.294-7.816l71.216-130.396c1.525-2.792 5.025-3.82 7.816-2.294 2.792 1.525 3.819 5.024 2.294 7.816l-71.215 130.396c-1.047 1.915-3.022 3-5.061 3z" fill-rule="evenodd"/></g><g><path clip-rule="evenodd" d="m227.436 320.553c-1.022 0-2.056-.272-2.992-.842-2.716-1.655-3.577-5.2-1.921-7.916l67.028-109.986c1.655-2.717 5.2-3.577 7.916-1.921s3.576 5.2 1.921 7.916l-67.028 109.985c-1.085 1.781-2.982 2.764-4.924 2.764z" fill-rule="evenodd"/></g><g><path clip-rule="evenodd" d="m195.698 430.942c-4.954 0-9.802-1.223-13.651-3.445-5.917-3.416-10.882-10.08-12.649-16.977-1.361-5.314-.778-10.267 1.686-14.324l30.183-49.527c1.656-2.716 5.2-3.576 7.916-1.921s3.577 5.2 1.921 7.916l-30.179 49.52c-1.029 1.693-.768 3.914-.368 5.477 1.004 3.92 3.984 7.974 7.248 9.858 2.094 1.208 4.97 1.902 7.891 1.902 4.164 0 7.633-1.419 8.835-3.615l16.866-30.88c1.525-2.792 5.024-3.818 7.816-2.294 2.792 1.525 3.819 5.024 2.294 7.816l-16.869 30.886c-3.293 6.019-10.374 9.608-18.94 9.608z" fill-rule="evenodd"/></g></g><g><g><path clip-rule="evenodd" d="m332.484 228.513c-5.529 0-10.985-1.45-15.902-4.289l-25.762-14.874c-7.381-4.261-12.66-11.142-14.867-19.375-2.206-8.232-1.074-16.831 3.188-24.212l10.957-18.979c.764-1.323 2.022-2.288 3.497-2.684 1.476-.395 3.048-.188 4.371.575l71.051 41.021c1.323.764 2.288 2.022 2.684 3.497.395 1.475.188 3.048-.576 4.371l-10.958 18.979c-4.262 7.381-11.142 12.661-19.374 14.867-2.747.738-5.538 1.102-8.309 1.103zm-35.288-70.98-8.078 13.991c-2.723 4.716-3.446 10.21-2.037 15.47s4.783 9.656 9.499 12.379l25.762 14.873c4.716 2.723 10.21 3.446 15.47 2.037 5.26-1.41 9.656-4.783 12.379-9.499l8.078-13.991z" fill-rule="evenodd"/></g><g><path clip-rule="evenodd" d="m295.082 155.426c-.977 0-1.967-.249-2.875-.773-2.755-1.591-3.699-5.114-2.108-7.869l47.045-81.484c1.591-2.755 5.113-3.699 7.868-2.108 2.755 1.59 3.699 5.113 2.108 7.868l-47.045 81.484c-1.066 1.848-3.002 2.882-4.993 2.882z" fill-rule="evenodd"/></g><g><path clip-rule="evenodd" d="m318.766 169.099c-.977 0-1.967-.249-2.875-.773-2.755-1.59-3.699-5.113-2.108-7.868l47.045-81.484c1.59-2.755 5.113-3.699 7.868-2.108s3.699 5.113 2.108 7.868l-47.045 81.484c-1.066 1.848-3.002 2.881-4.993 2.881z" fill-rule="evenodd"/></g><g><path clip-rule="evenodd" d="m342.449 182.773c-.977 0-1.967-.249-2.875-.772-2.755-1.59-3.699-5.113-2.108-7.869l47.045-81.484c1.59-2.755 5.113-3.699 7.868-2.108 2.755 1.59 3.699 5.114 2.108 7.869l-47.045 81.484c-1.066 1.847-3.002 2.88-4.993 2.88z" fill-rule="evenodd"/></g><g><path clip-rule="evenodd" d="m366.133 196.447c-.977 0-1.967-.249-2.875-.773-2.755-1.591-3.699-5.114-2.108-7.869l47.045-81.484c1.59-2.755 5.113-3.699 7.868-2.108s3.699 5.114 2.108 7.868l-47.045 81.484c-1.066 1.848-3.002 2.882-4.993 2.882z" fill-rule="evenodd"/></g></g></g></g><g><g><path clip-rule="evenodd" d="m213.984 84.056c-3.181 0-5.76-2.579-5.76-5.76v-10.116c0-3.181 2.579-5.76 5.76-5.76 3.182 0 5.76 2.579 5.76 5.76v10.116c0 3.181-2.579 5.76-5.76 5.76z" fill-rule="evenodd"/></g><g><path clip-rule="evenodd" d="m185.574 92.227c-1.991 0-3.927-1.033-4.994-2.881l-5.207-9.02c-1.59-2.755-.646-6.278 2.109-7.868 2.756-1.59 6.278-.646 7.868 2.109l5.207 9.02c1.59 2.755.646 6.278-2.109 7.868-.907.523-1.897.772-2.874.772z" fill-rule="evenodd"/></g><g><path clip-rule="evenodd" d="m166.029 113.907c-.977 0-1.968-.249-2.875-.773l-10.157-5.865c-2.755-1.591-3.699-5.113-2.108-7.868 1.59-2.755 5.114-3.699 7.869-2.108l10.157 5.865c2.755 1.591 3.699 5.113 2.108 7.868-1.067 1.847-3.003 2.881-4.994 2.881z" fill-rule="evenodd"/></g><g><path clip-rule="evenodd" d="m242.349 92.299c-.977 0-1.968-.249-2.875-.773-2.755-1.591-3.699-5.114-2.107-7.868l5.251-9.092c1.591-2.755 5.113-3.699 7.869-2.108 2.755 1.591 3.698 5.114 2.107 7.869l-5.251 9.092c-1.068 1.847-3.004 2.88-4.994 2.88z" fill-rule="evenodd"/></g><g><path clip-rule="evenodd" d="m261.817 113.974c-1.991 0-3.927-1.034-4.994-2.881-1.591-2.755-.646-6.278 2.109-7.868l10.276-5.932c2.756-1.59 6.278-.646 7.868 2.109 1.591 2.755.646 6.278-2.109 7.868l-10.276 5.932c-.907.523-1.898.772-2.874.772z" fill-rule="evenodd"/></g><g><path clip-rule="evenodd" d="m248.746 135.246c-3.025 0-5.562-2.358-5.744-5.417-.917-15.354-13.697-27.381-29.097-27.381s-28.181 12.028-29.097 27.381c-.19 3.175-2.92 5.593-6.093 5.407-3.175-.19-5.596-2.918-5.407-6.093 1.279-21.429 19.111-38.215 40.597-38.215s39.318 16.786 40.597 38.215c.19 3.175-2.231 5.904-5.406 6.093-.118.007-.235.01-.35.01z" fill-rule="evenodd"/></g><g><path clip-rule="evenodd" d="m273.895 142.032c-.867 0-1.747-.196-2.575-.611-4.991-2.499-13.311-4.715-23.427-6.239-10.185-1.534-21.938-2.344-33.989-2.344s-23.804.81-33.989 2.344c-10.115 1.524-18.435 3.739-23.427 6.239-2.845 1.424-6.305.273-7.73-2.571-1.424-2.844-.273-6.305 2.571-7.73 6.133-3.071 15.424-5.605 26.869-7.329 10.744-1.618 23.09-2.472 35.705-2.472s24.962.855 35.705 2.472c11.445 1.724 20.736 4.258 26.869 7.329 2.845 1.424 3.996 4.885 2.572 7.73-1.009 2.016-3.042 3.182-5.154 3.182z" fill-rule="evenodd"/></g></g></g></g></g></svg>