<?xml version="1.0" encoding="UTF-8"?>
<svg xmlns="http://www.w3.org/2000/svg" viewBox="0 0 64 64" width="512" height="512"><g id="Layer_11" data-name="Layer 11"><path d="M63.8,40.4A1,1,0,0,0,63,40H55.082a16.134,16.134,0,0,0-1.093-8,1.065,1.065,0,0,1,.063-.951,3.1,3.1,0,0,0-.312-3.509l3.18-5.572a3.992,3.992,0,0,0,4.545-1.88,4.02,4.02,0,0,0-3.476-6.051,3.983,3.983,0,0,0-6.942-.011,4.08,4.08,0,0,0,.671,4.909l-3.179,5.57a3,3,0,0,0-1.3.053A3.039,3.039,0,0,0,45.371,26a1.022,1.022,0,0,1-.767.523,14.549,14.549,0,0,0-5.122,1.633A13.524,13.524,0,0,0,33.857,27a18.415,18.415,0,0,0-4.677.625,16.974,16.974,0,0,0-9.784-5.1A1.022,1.022,0,0,1,18.629,22a3.039,3.039,0,0,0-1.867-1.443,3,3,0,0,0-1.3-.053l-3.179-5.57a4.082,4.082,0,0,0,.672-4.909,3.98,3.98,0,0,0-6.943.011A4.114,4.114,0,0,0,4,10.573a4.07,4.07,0,0,0-1.464,5.515,3.992,3.992,0,0,0,4.545,1.88l3.18,5.572a3.1,3.1,0,0,0-.313,3.508,1.066,1.066,0,0,1,.064.953,15.3,15.3,0,0,0-1.183,6.187A3.987,3.987,0,0,0,2.545,39a3.891,3.891,0,0,0-.4,1H1a1,1,0,0,0-.962,1.275l4,14A1,1,0,0,0,5,56H59a1,1,0,0,0,.962-.725l4-14A1,1,0,0,0,63.8,40.4ZM53.521,17.815a2.063,2.063,0,0,1-.737-2.8,1.988,1.988,0,0,1,2.736-.746,2.027,2.027,0,0,1,.9,1.14,1,1,0,0,0,1.162.671,1.955,1.955,0,0,1,1.412.217,2.064,2.064,0,0,1,.738,2.8,2.007,2.007,0,0,1-1.226.95,1.97,1.97,0,0,1-1.51-.2,1,1,0,0,0-1.373.368L52.111,26.36l-1.746-1.02,3.519-6.166A1,1,0,0,0,53.521,17.815Zm-8.708,10.7a3.021,3.021,0,0,0,2.294-1.52,1.064,1.064,0,0,1,.649-.5,1.044,1.044,0,0,1,.8.108l3.373,1.97a1.1,1.1,0,0,1,.389,1.492,3.073,3.073,0,0,0-.155,2.75A14.2,14.2,0,0,1,53.069,40H51a1,1,0,0,0-.8.4L47.5,44H45.059A13.324,13.324,0,0,0,46,39a11.617,11.617,0,0,0-4.436-9.615A11.778,11.778,0,0,1,44.813,28.513ZM44,39a10.98,10.98,0,0,1-1.158,5h-20.7c-.224-.253-.446-.508-.635-.769A3.018,3.018,0,0,0,19.057,42,1.058,1.058,0,0,1,18,40.943V37.057A1.058,1.058,0,0,1,19.057,36,3.018,3.018,0,0,0,21.5,34.769C23.964,31.372,29.044,29,33.857,29,40.019,29,44,32.925,44,39ZM16.2,42a3.052,3.052,0,0,0,2.857,2H16.5L15,42Zm.044-19.511a1.064,1.064,0,0,1,.649.5,3.021,3.021,0,0,0,2.294,1.52,14.54,14.54,0,0,1,7.845,3.813,16.088,16.088,0,0,0-7.149,5.27,1.016,1.016,0,0,1-.826.4A3.052,3.052,0,0,0,16.2,36H10.931a14.194,14.194,0,0,1,.91-7.191,3.072,3.072,0,0,0-.156-2.751,1.1,1.1,0,0,1,.389-1.491l3.375-1.97A1.036,1.036,0,0,1,16.244,22.489ZM7.771,15.741a1,1,0,0,0-.764.1,1.956,1.956,0,0,1-1.51.2,2.007,2.007,0,0,1-1.226-.95,2.064,2.064,0,0,1,.738-2.8,1.949,1.949,0,0,1,1.412-.217,1,1,0,0,0,1.162-.671,2.03,2.03,0,0,1,.9-1.141,1.965,1.965,0,0,1,1.511-.2,2,2,0,0,1,1.225.95,2.064,2.064,0,0,1-.738,2.8,1,1,0,0,0-.363,1.359l3.519,6.166-1.746,1.02L8.38,16.211A1,1,0,0,0,7.771,15.741Zm-3.25,22.59A1.974,1.974,0,0,1,4,37a2,2,0,0,1,4,0,1,1,0,0,0,1,1h7v2H4.309a2.04,2.04,0,0,1,.212-.331A1,1,0,0,0,4.521,38.331ZM58.246,54H5.754L2.326,42H12.5l2.7,3.6a1,1,0,0,0,.8.4H48a1,1,0,0,0,.8-.4L51.5,42H61.674Z"/><path d="M25.293,18.293a1,1,0,1,0,1.414,1.414,3.832,3.832,0,0,0,0-5.414,1.831,1.831,0,0,1,0-2.586,1,1,0,0,0-1.414-1.414,3.832,3.832,0,0,0,0,5.414A1.831,1.831,0,0,1,25.293,18.293Z"/><path d="M31.293,16.293a1,1,0,1,0,1.414,1.414,3.832,3.832,0,0,0,0-5.414,1.831,1.831,0,0,1,0-2.586,1,1,0,0,0-1.414-1.414,3.832,3.832,0,0,0,0,5.414A1.831,1.831,0,0,1,31.293,16.293Z"/><path d="M37.293,18.293a1,1,0,1,0,1.414,1.414,3.832,3.832,0,0,0,0-5.414,1.831,1.831,0,0,1,0-2.586,1,1,0,0,0-1.414-1.414,3.832,3.832,0,0,0,0,5.414A1.831,1.831,0,0,1,37.293,18.293Z"/></g></svg>
